<?xml version="1.0" standalone="no"?>
<!DOCTYPE svg PUBLIC "-//W3C//DTD SVG 20010904//EN"
 "http://www.w3.org/TR/2001/REC-SVG-20010904/DTD/svg10.dtd">
<svg version="1.0" xmlns="http://www.w3.org/2000/svg"
 width="870.000000pt" height="119.000000pt" viewBox="0 0 870.000000 119.000000"
 preserveAspectRatio="xMidYMid meet">

<g transform="translate(0.000000,119.000000) scale(0.100000,-0.100000)"
fill="#000000" stroke="none">
<path d="M735 1038 c-54 -16 -76 -18 -102 -10 -34 11 -39 7 -24 -17 7 -11 40
-16 124 -20 111 -6 114 -7 140 -36 29 -33 53 -83 44 -91 -3 -3 -39 2 -79 11
-72 16 -326 35 -360 27 -9 -2 -14 -10 -12 -17 5 -13 -62 -45 -95 -45 -11 0
-39 11 -62 25 -51 29 -91 31 -144 9 -42 -17 -43 -30 -1 -14 46 17 93 12 122
-13 15 -13 24 -29 21 -34 -11 -18 -171 -71 -235 -79 l-61 -6 -4 43 c-2 24 -3
-32 -3 -126 0 -93 1 -149 3 -124 l4 47 58 4 c49 3 68 12 132 54 87 58 229 121
309 136 59 11 225 17 234 8 10 -11 -94 -209 -118 -225 -20 -13 -32 -14 -62 -6
-43 12 -52 8 -34 -14 17 -21 77 -36 104 -25 26 9 67 61 85 107 20 49 76 100
119 106 39 6 60 3 207 -33 140 -34 139 -34 232 -152 54 -68 94 -110 110 -114
30 -8 114 3 127 16 14 14 89 13 104 -2 20 -20 26 1 7 22 -16 18 -31 20 -119
20 -75 0 -107 4 -124 15 -24 18 -76 100 -70 114 1 4 26 2 53 -5 60 -16 241
-34 344 -34 63 0 72 2 61 15 -10 12 -5 17 25 30 52 21 86 19 136 -10 55 -31
81 -31 144 -1 55 27 46 35 -12 11 -19 -8 -44 -15 -56 -15 -23 0 -87 37 -87 51
0 14 114 64 175 77 89 19 106 20 166 8 81 -17 152 -68 229 -164 74 -92 106
-112 182 -113 29 0 74 -4 101 -8 37 -6 47 -5 47 6 0 17 -30 30 -103 42 -32 6
-74 18 -94 27 -49 24 -128 134 -95 134 4 0 36 -10 72 -21 60 -19 80 -20 241
-14 231 9 231 9 363 -167 35 -46 69 -80 85 -86 29 -10 75 -4 149 18 33 10 48
11 68 1 33 -15 43 -6 21 16 -13 14 -40 18 -120 21 -56 2 -110 9 -119 16 -22
16 -68 86 -68 104 0 11 7 13 28 8 101 -23 214 -36 318 -36 107 0 122 2 120 16
-1 11 14 22 43 32 42 14 46 14 98 -12 61 -29 98 -32 148 -12 51 22 43 28 -10
8 -45 -16 -47 -16 -91 7 -29 16 -44 30 -42 40 4 20 112 64 201 81 56 11 79 12
130 1 97 -20 149 -57 239 -168 76 -95 91 -104 216 -114 58 -4 108 -6 111 -3
13 13 -32 36 -94 48 -39 7 -87 22 -108 32 -38 20 -116 116 -98 122 6 2 44 -6
85 -18 66 -18 90 -20 210 -14 210 11 252 -7 362 -153 89 -118 115 -129 224
-97 33 10 69 14 92 10 42 -7 45 -5 22 18 -12 12 -38 16 -114 16 -89 0 -101 2
-127 24 -36 30 -80 106 -61 106 7 0 49 -7 94 -15 44 -8 145 -17 224 -21 126
-6 143 -5 138 8 -4 10 5 20 28 32 48 22 74 20 133 -10 54 -28 86 -28 146 2 17
8 21 12 10 8 -11 -3 -40 -8 -65 -10 -38 -4 -50 -1 -75 20 -27 22 -28 26 -15
39 8 9 55 29 103 46 174 61 296 35 407 -86 30 -33 74 -81 97 -106 48 -53 80
-64 205 -69 78 -3 85 -1 77 14 -6 11 -37 22 -86 33 -43 9 -92 22 -110 30 -31
14 -113 106 -113 127 0 11 2 11 120 -22 110 -30 212 -37 241 -16 27 19 68 20
138 5 60 -12 92 -41 181 -157 35 -46 71 -87 81 -93 27 -14 64 -11 131 12 48
16 67 18 91 9 35 -12 45 -7 28 13 -8 10 -43 16 -115 19 -71 3 -112 10 -128 20
-24 16 -76 103 -67 112 3 3 33 -1 68 -10 35 -8 127 -19 205 -24 193 -13 188
-13 182 8 -5 14 4 22 45 36 l50 18 64 -32 63 -32 54 17 c29 10 58 22 63 28 7
7 4 8 -10 2 -80 -30 -107 -29 -159 8 l-29 20 22 19 c13 10 59 29 102 43 212
67 310 34 470 -154 34 -40 76 -79 93 -86 39 -16 226 -28 226 -15 0 16 -51 37
-118 48 -35 6 -79 21 -97 32 -38 23 -102 113 -85 118 6 2 55 -8 108 -24 l97
-27 69 18 c39 10 98 20 133 23 l63 5 0 40 0 40 -90 -6 c-107 -8 -113 0 -47 60
33 30 55 42 90 47 26 4 47 12 47 18 0 6 -10 8 -22 4 -13 -3 -35 -6 -50 -6 -17
0 -48 -17 -84 -46 -71 -58 -137 -88 -178 -81 -17 3 -71 24 -119 47 -122 57
-218 80 -339 80 -99 0 -132 14 -60 25 46 8 184 54 197 66 5 5 -13 2 -40 -7
-28 -8 -83 -19 -123 -23 -55 -6 -82 -15 -113 -37 -119 -83 -242 -139 -352
-160 -77 -15 -213 -19 -220 -7 -6 9 81 191 103 218 11 13 25 16 67 13 29 -3
53 -1 53 3 0 17 -51 41 -85 41 -46 0 -69 -21 -107 -97 -42 -83 -62 -102 -122
-115 -41 -9 -61 -8 -106 5 -138 40 -244 46 -322 18 -26 -9 -51 -13 -55 -9 -4
4 15 30 44 57 42 40 58 49 87 49 19 0 38 5 41 10 4 6 -13 10 -45 10 -46 0 -55
-4 -98 -43 -107 -99 -155 -108 -279 -51 -142 64 -217 84 -351 91 -68 3 -119
10 -115 14 4 4 35 12 69 18 33 5 78 17 100 27 21 10 53 21 69 25 l30 6 -30 1
c-16 1 -55 -7 -85 -18 -30 -11 -75 -19 -99 -20 -34 0 -56 -9 -101 -39 -101
-69 -244 -133 -339 -151 -52 -10 -231 -14 -231 -6 0 21 107 219 122 227 12 6
39 8 64 4 58 -8 57 8 -1 30 -67 26 -95 11 -144 -79 -22 -39 -51 -82 -65 -95
-38 -36 -114 -39 -206 -11 -63 20 -85 22 -174 16 -55 -4 -116 -10 -133 -13
-45 -7 -43 13 5 59 41 41 77 58 125 59 l32 1 -30 9 c-47 14 -84 1 -151 -57
-97 -82 -157 -88 -277 -27 -113 57 -184 75 -320 80 -87 4 -127 9 -124 17 2 6
26 14 53 18 27 4 73 16 104 27 30 11 66 22 80 24 18 3 14 5 -13 6 -21 0 -48
-4 -59 -10 -12 -6 -55 -15 -97 -21 -66 -8 -85 -15 -141 -53 -82 -56 -219 -120
-289 -134 -86 -18 -228 -26 -244 -13 -10 9 -4 29 33 105 62 129 63 130 127
125 29 -3 53 -1 53 3 0 17 -53 43 -86 43 -44 0 -69 -24 -110 -107 -56 -110
-115 -129 -279 -87 -94 24 -159 25 -256 5 -40 -9 -75 -13 -78 -9 -3 3 17 28
46 55 37 35 60 49 80 49 22 0 25 2 13 10 -27 18 -74 -1 -125 -50 -90 -84 -148
-88 -292 -20 -116 54 -171 68 -310 76 -125 7 -149 17 -68 30 60 9 218 64 184
64 -15 0 -44 -6 -65 -14 -22 -7 -66 -17 -99 -21 -63 -7 -100 -22 -151 -61 -44
-34 -211 -110 -269 -123 -131 -30 -265 -34 -265 -9 0 5 21 54 47 108 53 113
71 127 141 112 38 -9 41 -8 32 8 -10 18 -59 40 -90 40 -30 0 -70 -40 -99 -99
-60 -117 -131 -145 -262 -103 -35 12 -90 26 -122 31 -31 6 -66 15 -77 21 -11
6 -54 53 -96 106 -107 135 -123 143 -229 112z m-611 -417 c3 -5 -21 -15 -54
-24 l-60 -15 0 24 c0 22 4 24 54 24 30 0 57 -4 60 -9z"/>
</g>
</svg>
