<?xml version="1.0" standalone="no"?>
<!DOCTYPE svg PUBLIC "-//W3C//DTD SVG 20010904//EN"
 "http://www.w3.org/TR/2001/REC-SVG-20010904/DTD/svg10.dtd">
<svg version="1.0" xmlns="http://www.w3.org/2000/svg"
 width="886.000000pt" height="113.000000pt" viewBox="0 0 886.000000 113.000000"
 preserveAspectRatio="xMidYMid meet">

<g transform="translate(0.000000,113.000000) scale(0.100000,-0.100000)"
fill="#000000" stroke="none">
<path d="M7442 881 c-15 -16 -36 -51 -46 -77 -51 -131 -123 -160 -286 -118
-77 20 -222 14 -272 -10 -64 -32 -75 -16 -27 39 37 42 77 65 113 65 14 0 28 5
32 11 5 9 -9 10 -51 7 -53 -4 -61 -9 -99 -50 -22 -24 -60 -57 -83 -72 -56 -37
-112 -32 -268 24 -118 43 -122 44 -272 48 -151 4 -186 14 -95 28 26 4 79 22
117 40 76 37 70 45 -10 15 -28 -10 -73 -22 -100 -26 -61 -9 -68 -13 -131 -65
-69 -58 -254 -147 -339 -164 -103 -20 -188 -27 -204 -17 -13 8 -11 18 11 63
14 29 33 75 43 102 26 73 47 89 106 84 27 -3 49 -2 49 2 0 14 -29 31 -62 36
-62 10 -83 -7 -133 -106 -67 -133 -114 -153 -277 -113 -65 16 -77 16 -196 0
-70 -10 -130 -17 -134 -17 -15 0 -8 22 19 56 29 39 70 64 105 64 13 0 30 5 38
10 11 7 0 10 -38 10 -51 0 -55 -2 -122 -65 -106 -99 -139 -105 -281 -50 -144
56 -197 66 -340 66 -119 1 -153 8 -113 23 9 3 25 6 37 6 12 0 49 12 82 26 33
14 76 30 95 34 l35 8 -40 1 c-22 0 -50 -5 -61 -13 -11 -8 -52 -20 -90 -27 -80
-13 -94 -19 -154 -70 -81 -67 -230 -139 -333 -160 -101 -21 -202 -25 -212 -9
-4 6 -2 17 4 24 7 8 24 49 40 92 16 43 39 88 52 102 20 21 30 24 75 20 57 -5
64 8 18 33 -35 18 -89 16 -113 -5 -10 -10 -38 -55 -60 -101 -56 -116 -106
-139 -243 -110 -102 21 -218 19 -303 -5 -83 -24 -75 -23 -75 -6 0 20 96 106
120 106 11 0 20 5 20 11 0 8 -13 10 -37 6 -27 -5 -52 -21 -92 -61 -101 -100
-139 -103 -321 -33 -105 41 -106 41 -267 45 -90 2 -163 8 -163 12 0 4 30 15
66 24 37 9 85 26 108 38 22 12 52 24 66 29 20 6 21 7 5 8 -11 1 -51 -10 -90
-24 -38 -13 -83 -25 -98 -25 -34 0 -78 -22 -132 -65 -53 -42 -135 -91 -204
-121 -107 -48 -328 -82 -346 -54 -3 5 1 20 9 32 8 13 29 60 46 106 37 97 60
115 128 102 46 -8 55 2 19 24 -74 46 -123 24 -172 -77 -45 -92 -62 -113 -107
-132 -49 -20 -77 -19 -168 5 -41 11 -92 20 -112 20 -71 0 -112 26 -197 125
-45 52 -96 100 -116 110 -35 16 -38 16 -112 -10 -56 -19 -87 -25 -117 -20
l-41 6 24 -21 c22 -19 32 -20 128 -14 l104 7 30 -29 c17 -16 40 -46 51 -68
l20 -38 -39 7 c-21 4 -130 9 -241 12 -198 4 -204 4 -198 -15 5 -16 -2 -22 -37
-36 -56 -21 -79 -20 -127 4 -51 26 -92 25 -146 -2 -53 -26 -51 -36 1 -14 21 9
49 16 64 16 28 0 91 -34 91 -49 0 -8 -46 -32 -137 -72 -22 -9 -62 -21 -87 -24
l-46 -7 0 -54 0 -54 51 0 c60 0 57 -13 -6 -29 -51 -13 -60 -31 -16 -31 35 0
93 23 110 44 40 48 242 155 342 181 71 19 239 32 239 20 0 -14 -81 -209 -93
-224 -18 -21 -47 -28 -89 -21 -21 4 -38 4 -38 -1 0 -15 47 -40 77 -41 57 -2
72 10 112 95 53 111 82 137 159 144 35 3 74 1 94 -6 18 -7 75 -18 125 -26 55
-8 102 -21 115 -32 13 -9 61 -59 107 -111 46 -51 95 -98 108 -103 26 -10 98 4
143 28 30 16 64 17 92 2 28 -15 35 -3 12 22 -18 20 -25 20 -124 14 -105 -7
-107 -7 -138 19 -35 30 -77 94 -68 103 3 4 35 1 70 -5 35 -7 141 -12 235 -12
162 0 172 1 167 18 -5 14 3 22 29 35 47 22 82 21 133 -3 22 -11 54 -20 69 -20
32 0 107 32 118 49 4 7 -9 5 -32 -5 -21 -9 -51 -19 -66 -22 -34 -5 -99 27 -95
47 4 19 119 76 195 95 74 20 113 20 181 3 69 -18 122 -56 212 -151 41 -43 89
-85 107 -92 21 -9 71 -14 140 -14 99 0 106 1 91 16 -9 9 -52 23 -95 30 -108
19 -147 39 -190 96 -19 27 -33 51 -30 54 3 3 37 -1 76 -10 85 -20 136 -20 266
-1 196 29 228 17 351 -126 111 -127 121 -131 251 -86 52 18 68 20 93 10 31
-12 36 -8 20 17 -8 12 -31 15 -126 12 l-117 -2 -38 41 c-37 41 -56 75 -46 85
3 3 40 0 84 -6 43 -6 148 -10 233 -8 137 3 155 5 152 19 -1 11 11 22 38 33 52
21 69 20 121 -4 53 -24 85 -25 134 -4 50 21 39 28 -12 8 -40 -16 -43 -16 -84
7 -23 13 -44 30 -47 37 -7 22 157 89 261 107 46 8 137 -10 192 -37 22 -11 81
-62 130 -114 50 -51 102 -97 117 -103 33 -12 237 -17 239 -5 3 16 -48 34 -118
43 -38 5 -83 16 -100 25 -53 27 -127 126 -95 126 5 0 32 -7 61 -15 70 -21 114
-22 259 -5 96 11 130 11 156 2 18 -7 44 -12 57 -12 18 0 44 -19 90 -67 35 -37
87 -91 115 -120 59 -61 81 -66 164 -33 56 22 94 27 128 16 24 -8 29 3 10 22
-8 8 -51 12 -129 12 l-117 0 -35 39 c-41 46 -60 78 -50 84 5 2 53 -2 108 -10
107 -14 375 -9 375 8 0 5 -6 9 -12 9 -18 1 73 49 93 50 9 0 42 -12 73 -26 59
-27 73 -27 140 1 53 23 39 28 -19 8 -47 -16 -50 -16 -92 7 -24 12 -43 26 -43
31 0 14 43 39 123 70 104 40 154 48 222 37 88 -13 149 -51 244 -148 47 -48 97
-94 111 -101 25 -14 250 -21 250 -8 0 18 -37 32 -118 44 -50 7 -99 18 -109 23
-29 16 -103 99 -103 117 0 18 -8 19 86 -5 106 -28 250 -32 284 -7 33 23 132
23 185 -2 25 -11 77 -58 138 -124 94 -101 101 -107 139 -107 21 0 62 10 89 21
35 16 62 20 94 17 25 -3 45 -2 45 2 0 23 -35 30 -137 29 -125 -1 -135 3 -181
70 l-33 46 26 3 c14 2 49 -1 76 -7 54 -12 345 -14 369 -3 8 4 15 14 15 22 0 8
21 23 47 34 l47 19 57 -27 c62 -30 89 -31 158 -1 51 22 38 32 -14 11 -22 -9
-49 -16 -60 -16 -26 0 -92 40 -87 54 5 16 100 62 176 86 83 26 165 26 237 -1
45 -17 77 -41 156 -118 131 -128 138 -131 270 -131 90 0 106 2 102 15 -7 18
-51 31 -129 40 -76 8 -131 40 -173 99 -40 55 -39 55 98 26 93 -21 93 -21 159
-1 36 11 83 23 104 26 36 7 37 8 37 52 0 37 -3 44 -17 40 -44 -12 -113 -18
-113 -9 0 17 96 112 113 112 9 0 17 5 17 10 0 26 -46 4 -116 -54 -48 -40 -93
-69 -120 -76 -47 -14 -31 -18 -241 60 -79 30 -187 43 -290 36 -56 -5 -93 -3
-97 3 -7 10 5 15 64 27 19 3 60 18 90 31 30 14 66 29 80 33 23 8 23 8 3 9 -11
1 -45 -7 -75 -18 -29 -10 -79 -24 -112 -30 -43 -8 -70 -20 -104 -48 -136 -113
-312 -185 -486 -199 -86 -8 -95 -1 -68 53 11 21 27 63 37 93 10 30 31 67 46
83 26 26 33 28 74 21 51 -7 59 5 20 30 -40 26 -93 21 -123 -13z"/>
</g>
</svg>
