<?xml version="1.0" standalone="no"?>
<!DOCTYPE svg PUBLIC "-//W3C//DTD SVG 20010904//EN"
 "http://www.w3.org/TR/2001/REC-SVG-20010904/DTD/svg10.dtd">
<svg version="1.0" xmlns="http://www.w3.org/2000/svg"
 width="1163.000000pt" height="111.000000pt" viewBox="0 0 1163.000000 111.000000"
 preserveAspectRatio="xMidYMid meet">

<g transform="translate(0.000000,111.000000) scale(0.100000,-0.100000)"
fill="#000000" stroke="none">
<path d="M1076 898 c-71 -17 -83 -18 -127 -5 -53 16 -61 11 -28 -19 19 -17 38
-19 164 -19 129 0 146 -2 171 -21 31 -23 90 -92 83 -98 -2 -2 -47 5 -99 15
-116 24 -613 38 -530 15 l45 -12 -61 -17 c-80 -22 -94 -22 -167 9 -48 20 -73
25 -112 21 -47 -4 -171 -44 -163 -53 3 -2 36 5 74 16 38 11 81 20 96 20 28 0
118 -39 118 -50 0 -11 -137 -49 -235 -66 -86 -16 -206 -15 -277 2 -28 6 -28 6
-28 -49 l0 -56 45 -6 c24 -4 98 -6 164 -4 135 4 138 -10 4 -22 -80 -7 -213
-46 -213 -61 0 -11 -1 -11 70 12 36 12 90 20 129 20 81 0 127 12 189 50 45 28
164 69 322 111 80 21 325 37 375 25 l28 -7 -30 -32 c-17 -18 -43 -56 -59 -86
-38 -71 -73 -94 -139 -87 -27 2 -61 8 -75 12 -22 7 -23 6 -12 -8 39 -47 143
-62 199 -29 17 11 50 47 73 81 32 48 53 67 88 83 58 25 154 26 235 3 32 -9
103 -21 158 -26 118 -10 127 -15 266 -143 112 -104 132 -110 274 -78 86 20 98
21 142 7 51 -15 59 -10 26 20 -19 17 -38 19 -164 19 -129 0 -146 2 -171 21
-31 23 -90 92 -83 98 2 2 47 -5 99 -15 116 -24 613 -38 530 -15 l-45 12 61 17
c80 22 94 22 167 -9 48 -20 73 -25 112 -21 47 4 171 44 163 53 -3 2 -36 -5
-74 -16 -38 -11 -81 -20 -96 -20 -28 0 -118 39 -118 51 0 9 138 49 228 65 220
39 372 -4 529 -148 99 -91 128 -101 288 -102 66 -1 128 -5 138 -10 27 -13 21
11 -8 30 -16 11 -62 20 -122 26 -117 10 -179 36 -234 95 -22 24 -39 46 -37 48
1 1 50 -8 108 -21 93 -22 121 -24 240 -19 74 3 166 8 203 11 48 4 89 1 138
-11 73 -18 90 -30 235 -166 77 -73 112 -80 245 -50 86 20 98 21 142 7 51 -15
59 -10 26 20 -19 17 -38 19 -164 19 -129 0 -146 2 -171 21 -31 23 -90 92 -83
98 2 2 47 -5 99 -15 116 -24 613 -38 530 -15 l-45 12 61 17 c80 22 94 22 167
-9 48 -20 73 -25 112 -21 45 4 171 44 163 52 -2 2 -35 -5 -73 -16 -38 -10 -82
-19 -97 -19 -28 0 -118 39 -118 51 0 9 138 49 228 65 220 39 372 -4 529 -148
99 -91 128 -101 288 -102 66 -1 128 -5 138 -10 27 -13 21 11 -8 30 -16 11 -62
20 -122 26 -117 10 -179 36 -234 95 -22 24 -39 46 -37 48 1 1 53 -8 113 -22
108 -25 113 -25 293 -14 158 9 188 9 212 -4 16 -8 47 -15 68 -15 46 0 78 -22
204 -138 106 -99 129 -105 269 -73 86 20 98 21 142 7 51 -15 59 -10 26 20 -19
17 -38 19 -164 19 -129 0 -146 2 -171 21 -31 23 -90 92 -83 98 2 2 47 -5 99
-15 116 -24 613 -38 530 -15 l-45 12 61 17 c80 22 94 22 167 -9 48 -20 73 -25
112 -21 47 4 171 44 163 53 -3 2 -36 -5 -74 -16 -38 -11 -81 -20 -96 -20 -28
0 -118 39 -118 51 0 9 138 49 228 65 220 39 372 -4 529 -148 99 -91 128 -101
288 -102 66 -1 128 -5 138 -10 27 -13 21 11 -8 30 -16 11 -62 20 -122 26 -117
10 -179 36 -234 95 -22 24 -39 46 -37 48 1 1 49 -7 105 -20 56 -13 155 -26
221 -30 102 -6 123 -5 152 10 25 13 48 16 99 12 156 -13 163 -16 313 -155 106
-99 129 -105 269 -73 86 20 98 21 142 7 51 -15 59 -10 26 20 -19 17 -38 19
-164 19 -129 0 -146 2 -171 21 -31 23 -90 92 -83 98 2 2 47 -5 99 -15 116 -24
613 -38 530 -15 l-45 12 61 17 c80 22 94 22 167 -9 48 -20 73 -25 112 -21 47
4 171 44 163 53 -3 2 -36 -5 -74 -16 -38 -11 -81 -20 -96 -20 -28 0 -118 39
-118 51 0 9 138 49 228 65 220 39 372 -4 529 -148 99 -91 128 -101 288 -102
66 -1 128 -5 138 -10 27 -13 21 11 -8 30 -16 11 -62 20 -122 26 -117 10 -179
36 -234 95 -22 24 -39 46 -37 48 1 1 50 -8 108 -21 122 -28 204 -30 313 -9 43
8 114 15 157 15 70 0 79 2 84 20 3 11 9 30 12 42 l6 21 -152 -6 -153 -7 43 33
c24 17 52 39 63 46 12 9 56 17 113 21 135 9 140 26 6 22 -98 -3 -111 -6 -152
-33 -88 -57 -153 -83 -217 -87 -53 -4 -80 2 -195 41 -167 58 -313 80 -484 75
-138 -3 -141 10 -5 23 47 5 112 18 143 30 35 13 73 20 97 17 50 -4 44 8 -6 14
-22 3 -63 -3 -97 -13 -32 -11 -88 -19 -125 -19 -81 0 -127 -12 -189 -50 -45
-28 -164 -69 -322 -111 -80 -21 -325 -37 -375 -25 l-28 7 30 32 c17 18 43 56
59 86 38 71 73 94 139 87 28 -2 61 -8 75 -12 22 -7 23 -6 12 8 -39 47 -143 62
-199 29 -17 -11 -50 -47 -73 -81 -32 -48 -53 -67 -89 -83 -57 -25 -163 -26
-236 -2 -76 26 -315 32 -387 11 -86 -25 -97 -21 -48 17 74 56 101 67 168 67
34 0 62 4 62 10 0 6 -33 10 -79 10 -75 0 -82 -2 -132 -37 -142 -97 -214 -104
-404 -38 -164 56 -311 78 -481 73 -138 -3 -141 10 -5 23 47 5 112 18 143 30
35 13 73 20 97 17 50 -4 44 8 -6 14 -22 3 -63 -3 -97 -13 -32 -11 -88 -19
-125 -19 -81 0 -127 -12 -189 -50 -45 -28 -164 -69 -322 -111 -80 -21 -325
-37 -375 -25 l-28 7 30 32 c17 18 43 56 59 86 38 71 73 94 139 87 28 -2 61 -8
75 -12 22 -7 23 -6 12 8 -39 47 -143 62 -199 29 -17 -11 -50 -47 -73 -81 -32
-48 -53 -67 -88 -83 -61 -27 -153 -26 -261 3 -81 21 -92 22 -252 11 -91 -6
-175 -11 -184 -11 -12 0 -4 11 25 33 74 56 101 67 168 67 34 0 62 4 62 10 0 6
-33 10 -79 10 -75 0 -82 -2 -132 -37 -142 -97 -214 -104 -404 -38 -164 56
-311 78 -481 73 -138 -3 -141 10 -5 23 47 5 112 18 143 30 35 13 73 20 97 17
50 -4 44 8 -6 14 -22 3 -63 -3 -97 -13 -32 -11 -88 -19 -125 -19 -81 0 -127
-12 -189 -50 -45 -28 -164 -69 -322 -111 -80 -21 -325 -37 -375 -25 l-28 7 30
32 c17 18 43 56 59 86 38 71 73 94 139 87 28 -2 61 -8 75 -12 22 -7 23 -6 12
8 -39 47 -143 62 -199 29 -17 -11 -50 -47 -73 -81 -32 -48 -53 -67 -89 -83
-57 -25 -163 -26 -236 -2 -76 25 -270 31 -380 11 -117 -21 -115 -21 -65 17 71
54 102 67 160 68 71 1 38 17 -36 18 -44 1 -60 -5 -105 -36 -142 -97 -214 -104
-404 -38 -164 56 -311 78 -481 73 -138 -3 -141 10 -5 23 47 5 112 18 143 30
35 13 73 20 97 17 50 -4 44 8 -6 14 -22 3 -63 -3 -97 -13 -32 -11 -88 -19
-125 -19 -81 0 -127 -12 -189 -50 -45 -28 -164 -69 -322 -111 -80 -21 -325
-37 -375 -25 l-28 7 30 32 c17 18 43 56 59 86 38 71 73 94 139 87 28 -2 61 -8
75 -12 22 -7 23 -6 12 8 -39 47 -143 62 -199 29 -17 -11 -50 -47 -73 -81 -32
-48 -53 -67 -88 -83 -58 -25 -154 -27 -234 -3 -32 9 -103 21 -159 26 -119 11
-124 14 -254 134 -124 114 -149 121 -299 84z"/>
</g>
</svg>
