<?xml version="1.0" standalone="no"?>
<!DOCTYPE svg PUBLIC "-//W3C//DTD SVG 20010904//EN"
 "http://www.w3.org/TR/2001/REC-SVG-20010904/DTD/svg10.dtd">
<svg version="1.0" xmlns="http://www.w3.org/2000/svg"
 width="900.000000pt" height="79.000000pt" viewBox="0 0 900.000000 79.000000"
 preserveAspectRatio="xMidYMid meet">

<g transform="translate(0.000000,79.000000) scale(0.100000,-0.100000)"
fill="#000000" stroke="none">
<path d="M7564 751 c-27 -12 -58 -55 -88 -123 -38 -85 -86 -118 -170 -118 -24
0 -63 7 -87 16 -64 24 -238 24 -307 -1 -28 -10 -55 -16 -59 -12 -4 4 16 30 43
58 40 40 59 52 93 56 60 8 61 23 1 23 -48 0 -55 -4 -103 -49 -122 -115 -161
-123 -309 -66 -156 61 -227 75 -367 75 -92 0 -122 3 -114 11 6 6 31 14 56 16
45 5 196 72 164 73 -10 0 -31 -6 -46 -14 -15 -8 -59 -20 -97 -27 -80 -13 -92
-19 -159 -72 -82 -65 -256 -144 -359 -162 -116 -20 -206 -20 -206 -1 0 8 4 17
10 21 5 3 24 44 42 91 17 47 43 97 56 111 21 23 29 25 73 20 58 -7 65 7 14 29
-79 33 -108 14 -170 -104 -29 -58 -55 -93 -74 -105 -38 -22 -115 -22 -209 0
-64 15 -85 15 -175 5 -56 -7 -117 -15 -134 -19 -43 -7 -43 10 -1 61 35 42 81
66 128 66 21 0 29 4 24 11 -4 7 -24 9 -56 6 -42 -5 -58 -14 -106 -58 -31 -29
-70 -60 -87 -71 -48 -29 -117 -24 -221 18 -135 55 -194 67 -337 69 -70 1 -127
5 -128 10 0 5 31 17 70 27 38 9 83 24 100 33 17 8 47 19 68 24 l38 9 -32 1
c-18 1 -55 -8 -82 -19 -27 -10 -73 -22 -103 -26 -63 -8 -76 -14 -148 -70 -83
-63 -229 -132 -329 -154 -90 -20 -216 -26 -225 -11 -3 5 7 38 23 72 15 35 36
84 47 108 22 54 61 74 117 61 20 -4 37 -5 37 0 0 17 -41 42 -77 47 -53 7 -83
-20 -131 -117 -47 -95 -81 -120 -164 -120 -33 0 -85 7 -116 16 -67 20 -217 14
-296 -11 -83 -26 -85 -20 -19 48 26 27 59 51 75 54 42 8 35 27 -9 20 -26 -5
-52 -21 -87 -55 -28 -27 -64 -57 -81 -67 -46 -29 -124 -23 -215 15 -132 56
-199 70 -347 70 -73 0 -133 4 -133 9 0 5 24 14 53 21 28 6 84 24 122 40 39 16
77 31 85 33 10 4 8 6 -6 6 -11 1 -47 -8 -79 -19 -32 -11 -85 -24 -117 -30 -47
-7 -72 -19 -126 -59 -88 -67 -231 -136 -329 -161 -102 -26 -228 -37 -237 -21
-11 16 84 231 107 243 11 5 41 8 68 6 54 -3 61 4 27 26 -75 47 -130 21 -181
-86 -19 -40 -45 -83 -58 -95 -49 -45 -117 -54 -204 -27 -27 8 -83 19 -123 24
-40 5 -84 16 -99 24 -15 7 -63 55 -108 106 -44 51 -97 102 -117 114 l-36 21
-84 -29 c-72 -25 -89 -28 -116 -18 -34 12 -42 3 -17 -18 11 -9 50 -12 129 -11
l113 2 36 -40 c44 -48 62 -81 50 -91 -4 -5 -39 -2 -78 5 -63 12 -169 17 -343
16 -56 -1 -63 -3 -58 -19 4 -13 -4 -21 -37 -34 -55 -23 -72 -22 -132 7 -61 30
-73 31 -136 4 -62 -27 -57 -36 6 -14 51 17 74 13 118 -18 25 -17 27 -21 14
-34 -8 -8 -52 -30 -98 -48 l-84 -34 -3 -61 c-2 -37 1 -60 8 -60 6 0 6 -7 -2
-20 -18 -29 -1 -36 30 -12 170 134 333 201 522 217 99 8 107 2 77 -61 -14 -27
-32 -72 -41 -100 -9 -28 -28 -61 -41 -74 -21 -20 -31 -22 -82 -17 l-58 6 28
-25 c21 -18 40 -24 73 -24 55 0 69 14 118 112 56 113 70 123 169 122 45 -1
116 -9 157 -18 41 -9 92 -19 113 -22 41 -5 66 -27 185 -162 41 -45 84 -85 98
-88 16 -4 57 4 109 21 72 24 88 27 111 16 34 -15 42 -7 19 19 -18 19 -26 20
-125 14 l-106 -7 -35 31 c-34 30 -78 97 -69 106 3 2 37 -2 75 -10 42 -8 139
-13 242 -14 159 0 171 1 166 18 -3 13 6 22 32 35 48 23 77 21 135 -8 61 -31
69 -31 141 1 74 33 70 45 -4 14 l-55 -23 -46 23 c-25 13 -46 29 -46 35 0 14
100 64 180 91 33 11 83 18 126 18 109 -1 167 -32 284 -153 52 -54 106 -104
120 -112 26 -14 250 -21 250 -8 0 17 -32 29 -100 39 -98 14 -149 38 -193 92
-58 71 -51 79 43 53 63 -18 168 -20 255 -5 33 5 93 10 133 10 95 0 133 -20
209 -107 114 -133 137 -153 175 -153 19 0 61 9 94 21 40 14 72 19 102 15 47
-6 49 -5 26 18 -12 13 -40 16 -134 16 l-119 0 -41 53 c-52 70 -52 82 3 72 143
-24 365 -32 432 -15 17 4 24 8 18 9 -25 2 -12 21 23 36 49 20 87 19 134 -5 47
-24 85 -25 135 -4 50 21 39 28 -12 8 -40 -16 -43 -16 -85 7 -24 14 -43 31 -43
39 0 21 100 67 198 92 73 19 90 20 152 9 101 -17 168 -63 281 -192 22 -26 53
-53 70 -62 38 -20 254 -28 254 -10 0 14 -90 43 -134 43 -55 0 -131 43 -166 95
-17 25 -29 49 -26 53 4 3 38 -2 77 -13 59 -15 87 -17 167 -10 128 12 237 11
290 -2 48 -12 82 -40 175 -148 98 -113 118 -121 223 -84 44 15 72 19 109 14
l49 -6 -18 20 c-17 19 -31 21 -136 21 l-116 0 -36 38 c-38 39 -63 80 -54 89 2
3 36 0 74 -7 74 -12 272 -19 365 -12 45 3 56 7 47 17 -8 9 2 18 42 35 l52 22
51 -22 c71 -32 100 -35 150 -15 57 21 70 39 14 20 -23 -8 -51 -15 -63 -15 -26
0 -88 32 -94 49 -2 6 28 26 70 45 234 108 365 85 528 -93 47 -52 97 -95 118
-104 38 -17 252 -29 252 -15 0 17 -50 37 -119 47 -41 7 -90 19 -109 28 -44 21
-134 133 -107 133 3 0 37 -9 76 -20 39 -10 115 -22 169 -26 91 -6 101 -5 135
16 32 20 44 22 98 15 90 -10 117 -25 188 -106 120 -137 144 -159 176 -159 17
0 61 11 98 25 56 21 73 24 103 16 41 -12 50 -8 32 14 -10 12 -37 15 -132 15
l-120 0 -32 34 c-17 19 -40 49 -50 67 l-19 32 54 -7 c89 -12 279 -21 365 -18
71 3 81 6 77 20 -3 12 8 22 37 35 54 23 71 22 132 -9 35 -18 60 -24 79 -20 38
7 103 35 97 41 -3 3 -22 -2 -43 -11 -46 -19 -89 -13 -129 19 l-29 24 34 20
c19 11 66 33 104 49 61 25 83 29 170 29 92 0 104 -2 153 -30 53 -29 92 -63
184 -162 68 -73 96 -83 222 -83 111 0 133 10 74 34 -18 8 -60 17 -93 21 -33 4
-76 15 -96 26 -58 29 -135 129 -101 129 5 0 44 -9 87 -20 88 -23 144 -25 195
-9 19 6 62 17 95 23 l60 12 3 42 3 43 -75 -7 c-42 -4 -76 -4 -76 0 0 22 79 98
112 108 37 11 52 28 24 28 -31 0 -70 -22 -125 -70 -104 -91 -152 -98 -281 -44
-133 57 -217 74 -357 74 -68 0 -123 4 -123 9 0 4 30 15 66 24 68 17 188 66
180 74 -2 3 -38 -7 -79 -21 -42 -14 -89 -26 -106 -26 -44 0 -78 -16 -126 -58
-24 -21 -94 -64 -157 -95 -124 -63 -267 -101 -362 -95 -62 4 -63 7 -12 128 50
121 63 134 131 128 61 -5 68 1 30 26 -32 21 -74 28 -101 17z"/>
</g>
</svg>
