<?xml version="1.0" standalone="no"?>
<!DOCTYPE svg PUBLIC "-//W3C//DTD SVG 20010904//EN"
 "http://www.w3.org/TR/2001/REC-SVG-20010904/DTD/svg10.dtd">
<svg version="1.0" xmlns="http://www.w3.org/2000/svg"
 width="903.000000pt" height="111.000000pt" viewBox="0 0 903.000000 111.000000"
 preserveAspectRatio="xMidYMid meet">

<g transform="translate(0.000000,111.000000) scale(0.100000,-0.100000)"
fill="#000000" stroke="none">
<path d="M7594 880 c-27 -11 -58 -54 -88 -122 -38 -85 -86 -118 -170 -118 -24
0 -63 7 -87 16 -64 24 -238 24 -307 -1 -28 -10 -55 -16 -59 -12 -4 4 16 30 43
58 40 40 59 52 93 56 60 8 61 23 1 23 -48 0 -55 -4 -103 -49 -122 -115 -161
-123 -309 -66 -156 61 -227 75 -367 75 -89 0 -122 3 -114 11 6 6 30 13 54 16
24 3 69 17 99 31 30 14 64 29 75 33 19 7 18 7 -3 8 -13 1 -36 -5 -51 -13 -15
-8 -59 -20 -97 -27 -80 -13 -106 -25 -154 -68 -19 -18 -89 -58 -155 -91 -128
-63 -234 -90 -356 -90 -65 0 -69 6 -40 54 10 17 29 59 41 93 13 35 34 75 47
89 22 24 30 26 74 21 58 -7 65 7 14 29 -79 33 -108 14 -170 -104 -29 -58 -55
-93 -74 -105 -38 -22 -115 -22 -209 0 -64 15 -85 15 -175 5 -56 -7 -117 -15
-134 -19 -44 -7 -44 14 -1 63 36 41 82 64 128 64 21 0 29 4 24 11 -4 7 -24 9
-56 6 -42 -5 -58 -14 -106 -58 -31 -29 -70 -60 -87 -71 -48 -29 -117 -24 -221
18 -135 55 -194 67 -337 69 -70 1 -127 5 -128 10 0 5 32 17 70 27 39 9 81 23
93 29 13 7 41 18 63 25 34 11 36 13 13 13 -15 1 -50 -8 -77 -19 -27 -10 -73
-22 -103 -26 -63 -8 -76 -14 -148 -70 -83 -63 -229 -132 -329 -154 -90 -20
-216 -26 -225 -11 -3 5 7 38 23 72 15 35 36 84 47 108 22 54 61 74 117 61 49
-11 51 11 3 34 -76 36 -117 12 -174 -104 -47 -95 -81 -120 -164 -120 -33 0
-85 7 -116 16 -68 20 -208 15 -295 -11 -32 -9 -61 -14 -64 -11 -7 7 63 87 91
103 12 7 29 12 39 13 9 0 17 5 17 11 0 8 -13 10 -37 6 -26 -5 -52 -21 -87 -55
-77 -73 -103 -86 -166 -85 -38 0 -78 11 -130 33 -131 56 -199 70 -347 70 -73
0 -133 4 -133 9 0 5 24 14 53 21 28 6 84 24 122 40 39 16 77 31 85 33 10 4 8
6 -6 6 -11 1 -47 -8 -79 -19 -32 -11 -85 -24 -117 -30 -47 -7 -72 -19 -126
-59 -88 -67 -231 -136 -329 -161 -102 -26 -228 -37 -237 -21 -11 16 84 231
107 243 11 5 41 8 68 6 54 -3 61 4 27 26 -75 47 -130 21 -181 -86 -19 -40 -45
-83 -58 -95 -49 -45 -117 -54 -204 -27 -27 8 -82 19 -121 24 -39 5 -83 14 -97
21 -14 6 -64 55 -110 108 -46 53 -99 105 -119 115 l-36 19 -82 -28 c-69 -23
-88 -26 -116 -17 -36 11 -44 3 -19 -18 11 -9 50 -12 129 -11 l113 2 36 -40
c44 -48 62 -81 50 -91 -4 -5 -39 -2 -78 5 -63 12 -169 17 -343 16 -56 -1 -63
-3 -58 -18 4 -14 -4 -22 -37 -35 -55 -23 -72 -22 -132 7 -61 30 -73 31 -136 4
-62 -27 -57 -36 6 -14 53 18 99 9 129 -24 16 -18 16 -20 -6 -35 -28 -20 -171
-76 -193 -76 -12 0 -15 -13 -15 -59 0 -57 1 -60 27 -63 l28 -4 -27 -12 c-35
-14 -39 -47 -5 -37 12 4 33 15 47 25 182 138 332 199 520 215 99 8 107 2 77
-61 -14 -27 -32 -72 -41 -100 -9 -28 -28 -61 -41 -74 -21 -20 -31 -22 -82 -17
l-58 6 28 -25 c21 -18 40 -24 73 -24 55 0 69 14 118 112 52 106 71 122 155
126 45 3 83 -1 115 -12 27 -9 76 -19 110 -23 33 -3 75 -12 92 -20 18 -8 70
-59 118 -113 116 -134 123 -138 195 -118 31 9 71 22 88 29 26 11 40 11 65 1
39 -14 47 -8 23 18 -18 19 -26 20 -125 14 l-106 -7 -35 31 c-34 30 -78 97 -69
105 3 3 39 -1 80 -9 42 -7 149 -13 242 -14 155 0 166 1 161 18 -3 13 6 22 32
35 48 23 77 21 135 -8 61 -31 69 -31 141 1 74 33 70 45 -4 14 l-55 -23 -46 23
c-25 13 -46 29 -46 35 0 14 100 64 180 91 33 11 83 18 126 18 109 -1 167 -32
284 -153 52 -54 106 -104 120 -112 26 -14 250 -21 250 -8 0 17 -32 29 -100 39
-40 6 -92 19 -115 29 -40 18 -115 96 -115 120 0 15 10 14 84 -5 44 -12 85 -14
151 -10 318 20 298 20 342 -3 23 -11 68 -51 100 -88 114 -133 137 -153 175
-153 19 0 61 9 94 21 40 14 72 19 102 15 47 -6 49 -5 26 18 -12 13 -40 16
-134 16 l-119 0 -41 53 c-52 70 -52 82 3 72 143 -24 365 -32 432 -15 17 4 24
8 18 9 -25 2 -12 21 23 36 49 20 87 19 134 -5 22 -11 52 -20 68 -20 31 0 108
28 100 36 -3 2 -22 -3 -43 -12 -35 -14 -41 -14 -77 2 -83 37 -74 59 41 103
237 92 355 59 537 -150 22 -26 53 -53 69 -62 39 -20 255 -28 255 -10 0 14 -90
43 -135 43 -49 0 -134 49 -168 97 -17 24 -27 46 -23 50 3 4 40 -1 80 -12 76
-18 78 -18 304 1 44 4 88 2 110 -4 20 -6 49 -13 63 -16 26 -6 100 -76 174
-166 70 -85 101 -94 201 -59 44 15 72 19 109 14 l49 -6 -18 20 c-17 19 -31 21
-136 21 l-116 0 -36 38 c-38 40 -63 80 -54 89 3 3 36 0 73 -7 73 -13 272 -19
366 -12 45 3 56 7 47 17 -8 9 2 18 42 35 l52 22 51 -22 c71 -32 100 -35 150
-15 57 21 70 39 14 20 -23 -8 -51 -15 -63 -15 -25 0 -88 32 -94 48 -2 6 18 22
45 35 241 122 386 100 553 -82 47 -52 97 -95 118 -104 38 -17 252 -29 252 -15
0 17 -50 37 -119 47 -98 15 -135 34 -182 94 -60 75 -58 77 61 43 30 -8 98 -18
151 -22 90 -6 100 -5 134 16 32 20 44 22 98 15 90 -10 117 -25 188 -106 120
-137 144 -159 176 -159 17 0 61 11 98 25 56 21 73 24 103 16 41 -12 50 -8 32
14 -10 12 -36 15 -125 15 -63 0 -120 3 -129 6 -19 7 -86 96 -86 114 0 9 12 10
43 5 23 -3 133 -9 244 -11 191 -5 201 -5 197 13 -4 14 5 22 36 36 54 23 71 22
132 -9 35 -18 60 -24 79 -20 38 7 103 35 97 41 -3 3 -22 -2 -43 -11 -46 -19
-89 -13 -129 19 l-29 24 34 20 c19 11 66 33 104 49 61 25 83 29 170 29 92 0
104 -2 153 -30 53 -29 92 -63 184 -162 68 -73 96 -83 222 -83 111 0 133 10 74
34 -18 8 -60 17 -93 21 -33 4 -76 15 -96 26 -58 29 -135 129 -101 129 5 0 44
-9 87 -20 88 -23 144 -25 195 -9 19 6 62 17 95 23 l60 12 3 42 3 43 -75 -7
c-42 -4 -76 -4 -76 0 0 22 79 98 112 108 37 11 52 28 24 28 -31 0 -71 -22
-120 -67 -60 -54 -117 -83 -166 -83 -19 0 -73 17 -120 36 -133 57 -217 74
-357 74 -121 0 -160 11 -85 24 41 8 113 33 182 65 62 28 30 26 -55 -4 -38 -13
-84 -25 -102 -25 -46 0 -80 -15 -128 -58 -24 -21 -94 -64 -157 -95 -124 -63
-267 -101 -362 -95 -62 4 -63 7 -12 128 50 121 63 134 131 128 59 -5 68 1 32
25 -30 20 -78 28 -103 17z"/>
</g>
</svg>
